# xmcd
#
# Track frame offsets:
#	150
#	14699
#	28129
#	40441
#	52018
#	64941
#	77220
#	90379
#	107217
#	120306
#	132510
#	147611
#	162413
#	177772
#
# Disc length: 2529 seconds
#
# Revision: 0
# Processed by: cddbd v1.5.2PL0 Copyright (c) Steve Scherf et al.
# Submitted via: EasyCDDAExtractor 16.0.1.1
#
DISCID=cb09df0e
DTITLE=Josh White - Blues Singer And Balladeer
DYEAR=1900
DGENRE=Blues
TTITLE0=Mean Mistreating Woman
TTITLE1=Miss Otis Regrets
TTITLE2=When I Lay Down And Die  Do Die
TTITLE3=Motherless Children
TTITLE4=St  James Infirmary
TTITLE5=Hard Times
TTITLE6=One Meat Ball
TTITLE7=Baby  Baby
TTITLE8=Number 12 Train
TTITLE9=I Got A Head Like A Rock and Cotton Eyed Joe
TTITLE10=Strange Fruit
TTITLE11=Well  Well  Well
TTITLE12=T  B  Blues
TTITLE13=Joshua Fit The Battle Of Jericho
EXTD=
EXTT0=
EXTT1=
EXTT2=
EXTT3=
EXTT4=
EXTT5=
EXTT6=
EXTT7=
EXTT8=
EXTT9=
EXTT10=
EXTT11=
EXTT12=
EXTT13=
PLAYORDER=
